PathFileType	4	(X/Y/Z)	..\data\2014022\dynamic\2014022_C5_02.trc
DataRate	CameraRate	NumFrames	NumMarkers	Units	OrigDataRate	OrigDataStartFrame	OrigNumFrames
100.000000	100.000000	4	52	mm	100.000000	0	145
Frame#	Time	L_IAS			L_IPS			R_IPS			R_IAS			L_FTC			L_FLE			L_FME			L_FAX			L_TTC			L_FAL			L_TAM			L_FCC			L_FM1			L_FM2			L_FM5			R_FTC			R_FLE			R_FME			R_FAX			R_TTC			R_FAL			R_TAM			R_FCC			R_FM1			R_FM2			R_FM5			CV7			TV10			SXS			SJN			L_SIA			L_SRS			L_SAA			L_SAE			L_HLE			L_HME			L_UOA			L_RSP			L_UHE			L_HM2			L_HM5			R_SIA			R_SRS			R_SAA			R_SAE			R_HLE			R_HME			R_UOA			R_RSP			R_UHE			R_HM2			R_HM5			
		X1	Y1	Z1	X2	Y2	Z2	X3	Y3	Z3	X4	Y4	Z4	X5	Y5	Z5	X6	Y6	Z6	X7	Y7	Z7	X8	Y8	Z8	X9	Y9	Z9	X10	Y10	Z10	X11	Y11	Z11	X12	Y12	Z12	X13	Y13	Z13	X14	Y14	Z14	X15	Y15	Z15	X16	Y16	Z16	X17	Y17	Z17	X18	Y18	Z18	X19	Y19	Z19	X20	Y20	Z20	X21	Y21	Z21	X22	Y22	Z22	X23	Y23	Z23	X24	Y24	Z24	X25	Y25	Z25	X26	Y26	Z26	X27	Y27	Z27	X28	Y28	Z28	X29	Y29	Z29	X30	Y30	Z30	X31	Y31	Z31	X32	Y32	Z32	X33	Y33	Z33	X34	Y34	Z34	X35	Y35	Z35	X36	Y36	Z36	X37	Y37	Z37	X38	Y38	Z38	X39	Y39	Z39	X40	Y40	Z40	X41	Y41	Z41	X42	Y42	Z42	X43	Y43	Z43	X44	Y44	Z44	X45	Y45	Z45	X46	Y46	Z46	X47	Y47	Z47	X48	Y48	Z48	X49	Y49	Z49	X50	Y50	Z50	X51	Y51	Z51	X52	Y52	Z52	

1	0	-321.7911071777344	901.9500732421877	-360.0161743164063	-522.3352050781251	912.2627563476565	-320.0458679199219	-532.8108520507814	922.3745727539065	-214.7662048339844	-350.3072814941407	902.5092773437502	-113.3898696899414	-387.2115478515626	832.721618652344	-438.4155578613282	-204.972640991211	452.0403747558595	-396.842498779297	-220.0084686279297	429.9282531738282	-259.9681396484376	-207.8294677734376	396.3493652343751	-398.9778137207032	-134.6270751953125	415.147430419922	-346.3955078125001	-43.38532257080079	81.05800628662111	-361.0849304199219	-24.38870811462403	107.624984741211	-278.5344848632813	-46.12133026123048	21.49747085571289	-305.9553833007813	117.6300277709961	108.2860488891602	-282.8615417480469	108.7622909545899	122.403060913086	-342.5260925292969	85.13478088378908	81.19734954833986	-382.3798522949219	-464.6686401367189	848.0503540039065	-77.8804168701172	-570.5488281250001	449.1795654296876	-125.1599197387696	-557.9007568359376	453.9207153320314	-259.6345825195313	-607.1022338867189	406.7380371093751	-125.9235382080078	-549.3939208984376	370.8023681640626	-178.8996887207032	-755.3027343750001	93.18556976318361	-178.3606262207032	-746.5476074218751	100.3070526123047	-266.1481323242188	-810.055358886719	58.78995895385744	-220.8767852783204	-633.4881591796876	7.810729026794435	-268.4114990234376	-620.8939819335939	28.81978416442872	-207.6546325683594	-664.0997924804689	20.29410362243653	-156.4331359863282	-469.7014770507814	1392.800659179688	-264.2035522460938	-545.3576049804689	1177.880981445313	-238.8770446777344	-305.8217468261719	1104.483764648438	-265.0576782226563	-350.9256286621094	1323.725952148438	-272.6394042968751	-561.2051391601564	1202.382446289063	-318.0653381347657	-518.7915039062501	1341.725463867188	-315.1512145996094	-495.739471435547	1345.690063476563	-387.8452148437501	-456.7295227050782	1329.193725585938	-443.6215209960939	-592.9451904296876	1048.274536132813	-484.1259765625001	-569.1657104492189	1025.1884765625	-401.3639221191407	-603.0553588867189	1029.414306640625	-446.9849548339845	-600.4691162109376	794.9876708984377	-510.6677551269532	-661.5503540039064	836.8887939453127	-525.8506469726564	-630.1606445312501	716.9164428710939	-540.8465576171876	-713.2033081054689	776.9629516601565	-523.1649169921876	-538.2924194335939	1213.230102539063	-150.7947692871094	-497.726776123047	1350.145874023438	-179.4710693359375	-451.6457519531251	1357.921142578125	-106.4650344848633	-399.6029663085939	1360.844482421875	-82.64971923828126	-382.0941467285157	1042.623779296875	-8.00186061859131	-388.1311340332032	1021.901977539063	-90.86899566650392	-384.2033996582032	1006.074768066406	-39.13557815551759	-139.8621520996094	973.966735839844	-48.2963218688965	-173.8441314697266	924.528991699219	-5.44521713256836	-55.7414894104004	949.465026855469	-38.81644821166993	-111.4319686889649	868.3642578125002	-11.76004409790039	
2	0.01	-302.2651062011719	901.190368652344	-360.4530944824219	-503.042205810547	911.8121337890627	-321.0645141601563	-513.2047729492189	922.106384277344	-215.6101074218751	-330.8751220703126	901.4083251953127	-114.4611892700196	-368.2719421386719	832.1595458984377	-439.1916809082032	-187.1637268066407	450.9846496582032	-396.8256835937501	-201.4849853515626	429.5029907226564	-259.7222290039063	-190.48583984375	394.9682006835939	-398.6683959960939	-117.1034164428711	414.0190734863282	-346.3263854980469	-27.92608261108399	79.86626434326173	-359.8118591308594	-8.904465675354006	106.249137878418	-277.2897338867188	-31.50684928894044	20.7351360321045	-304.7959594726563	132.7888336181641	105.6797943115235	-280.6945495605469	124.5769805908203	119.2866134643555	-340.5550537109376	100.7287292480469	78.18111419677736	-380.1412048339844	-446.2662658691407	847.1361083984377	-79.27467346191408	-553.4103393554689	448.5717163085939	-125.3902664184571	-540.9437255859376	453.231658935547	-259.6313781738282	-591.3684082031251	407.1436157226564	-125.8917541503907	-534.3031005859376	369.3064270019532	-178.9745788574219	-750.7432250976564	99.03544616699222	-177.015380859375	-741.6375732421876	105.5155715942383	-264.6972351074219	-806.552185058594	67.54797363281251	-219.4538116455079	-634.9907226562501	7.124132156372072	-268.7175292968751	-621.3173828125001	28.51938056945801	-208.1079864501954	-663.5348510742189	20.59447288513184	-156.7256927490235	-451.8153076171876	1391.783813476563	-265.6043395996094	-526.5086669921876	1176.525756835938	-239.8165435791016	-286.4700317382813	1104.575073242188	-266.4252319335938	-332.6630859375001	1323.16015625	-274.1189880371094	-542.6492309570314	1200.9501953125	-318.7691650390626	-500.7930908203126	1340.477416992188	-316.3585510253907	-477.9856872558595	1344.519287109375	-389.009490966797	-439.2354431152345	1328.355834960938	-444.8068847656251	-577.1421508789064	1048.558959960938	-484.4903564453126	-552.7413330078126	1025.225830078125	-402.0565795898439	-586.9585571289064	1029.827270507813	-447.4205627441407	-588.2006835937501	795.5451660156252	-511.4453735351564	-648.7678833007814	838.388366699219	-525.8907470703126	-619.2609863281251	717.9498291015626	-541.7997436523439	-701.2266845703126	779.1721801757815	-522.8488159179689	-519.6803588867189	1211.872192382813	-151.9220275878907	-479.7385559082032	1349.041748046875	-180.9408721923828	-433.8569335937501	1356.974975585938	-107.924057006836	-381.6906127929688	1360.080444335938	-83.94625091552736	-365.4384460449219	1041.92919921875	-9.05131244659424	-371.5406799316407	1021.209411621094	-91.8729934692383	-367.5914001464844	1005.324340820313	-39.96905899047852	-123.3293685913086	973.3417968750002	-49.69943237304689	-157.0547637939453	924.0269165039065	-6.51384496688843	-39.08691024780274	949.1447753906252	-40.32083892822266	-94.49670410156251	867.9802246093752	-12.66550731658936	
3	0.02	-282.6623229980469	900.8223266601565	-361.2487792968751	-483.5652770996095	911.8405761718752	-321.7871398925782	-493.1761474609376	922.188903808594	-215.9685821533204	-310.8812255859376	900.5918579101565	-115.8544998168946	-349.3995971679688	832.1090087890627	-440.0960083007814	-169.1840972900391	450.4493713378907	-396.6394653320314	-182.7233581542969	429.8183593750001	-259.4237060546876	-173.3594207763672	394.0085449218751	-398.2450561523439	-99.75855255126956	412.8876037597657	-346.0896606445313	-15.29157447814942	78.11794281005861	-358.3415527343751	4.009128570556642	104.0172805786133	-275.8753662109376	-20.31139755249024	19.63261985778809	-303.5502319335938	145.2252044677735	100.7968215942383	-278.5376586914063	137.7332916259766	114.0302505493164	-338.5534973144532	113.1455001831055	73.4885940551758	-377.9378051757813	-426.843475341797	846.234313964844	-80.35485076904298	-534.7269287109376	447.6133422851564	-125.4664306640625	-522.4617309570314	452.1470642089845	-259.4516906738282	-574.1212768554689	407.3252868652345	-125.6670074462891	-517.7947387695314	367.5303344726563	-178.765853881836	-745.0549926757814	105.5935668945313	-175.5207672119141	-735.4685668945314	111.2383041381836	-263.0315246582032	-801.6934204101565	77.43843841552736	-217.9493103027344	-636.8675537109376	6.78866481781006	-269.0534362792969	-621.8966064453126	28.26190376281739	-208.6581573486329	-662.9375000000001	21.11864662170411	-157.0583953857422	-433.7797851562501	1391.126708984375	-267.1733093261719	-507.4620666503907	1175.494995117188	-240.9653625488282	-266.9713439941407	1105.205810546875	-267.8547058105469	-314.2697448730469	1323.026123046875	-275.6625366210938	-523.8862304687501	1199.9130859375	-319.7557067871094	-482.5798339843751	1339.597900390625	-317.7986450195313	-459.9510192871095	1343.704833984375	-390.3777465820314	-421.3841857910157	1327.881469726563	-446.1763610839845	-560.5106811523439	1048.970581054688	-485.0298767089845	-535.5969848632814	1025.532592773438	-402.833465576172	-570.1069335937501	1030.384887695313	-447.9773254394532	-574.6441040039064	796.2432250976565	-512.0598754882814	-634.7559204101564	839.8746337890627	-525.9332275390626	-606.9268798828126	718.9729614257814	-542.3297119140626	-687.9228515625001	781.2565917968752	-522.4614868164064	-500.9612121582032	1210.807861328125	-153.3241729736328	-461.6607055664064	1348.251708984375	-182.6145935058594	-416.068084716797	1356.318969726563	-109.5316772460938	-363.8051757812501	1359.632202148438	-85.32443237304689	-349.0799560546876	1041.464965820313	-10.38965034484863	-355.0276184082032	1020.894409179688	-93.21575164794923	-351.2767333984376	1004.85205078125	-41.12353897094727	-107.2683563232422	971.956970214844	-50.7487144470215	-141.1199188232422	922.790466308594	-7.481443405151369	-23.0500545501709	947.5114746093752	-41.38191223144532	-78.70944976806642	866.5596923828127	-13.43989086151123	
4	0.03	-263.0488891601563	900.8355102539065	-362.4016418457032	-463.9851379394532	912.3072509765627	-322.2219543457032	-472.8265991210939	922.5162353515627	-215.8589172363282	-290.4387817382813	900.016296386719	-117.5292434692383	-330.5499267578126	832.5855712890627	-441.1395263671876	-151.0445098876953	450.4163208007814	-396.3283691406251	-163.9886627197266	430.7220153808595	-259.1405944824219	-156.346420288086	393.4942932128907	-397.7831420898439	-82.61508178710939	411.8119506835939	-345.6419372558594	-5.064139366149903	75.98213958740236	-356.7500610351563	14.65676403045655	101.116928100586	-274.3431701660157	-12.08352088928223	18.33136749267578	-302.3076171875001	155.2890930175782	93.94857788085939	-276.3840637207032	148.6023559570313	106.9716720581055	-336.5148315429688	122.8111724853516	67.45951080322267	-375.8341064453126	-406.4392395019532	845.251647949219	-81.10256958007814	-514.4550781250001	446.2280883789064	-125.3750076293946	-502.2874145507814	450.5274047851564	-259.0867919921876	-555.2744750976564	407.1992492675782	-125.2386093139649	-499.7939758300782	365.4156799316407	-178.2384490966797	-738.0475463867189	112.8380126953125	-173.9095611572266	-727.8653564453126	117.4529647827149	-261.1804809570313	-795.2371826171877	88.42524719238283	-216.4094238281251	-638.9327392578126	6.988545894622805	-269.3907470703126	-622.4946899414064	28.12927627563477	-209.2766876220704	-662.1934204101564	21.97969818115235	-157.4141693115235	-415.5960693359376	1390.812255859375	-268.8953552246094	-488.2659912109376	1174.796264648438	-242.3097534179688	-247.3869018554688	1106.262329101563	-269.3028564453126	-295.7517089843751	1323.27734375	-277.2506713867188	-504.9452514648439	1199.269897460938	-321.0279846191407	-464.1547241210939	1339.08056640625	-319.4655151367188	-441.6204528808595	1343.23193359375	-391.9495239257814	-403.1471557617189	1327.720825195313	-447.7222290039064	-543.0541992187501	1049.457275390625	-485.7588806152345	-517.7387695312501	1026.048461914063	-403.7010192871095	-552.5095214843751	1031.037963867188	-448.6684875488282	-559.7846679687501	797.007995605469	-512.5426025390626	-619.5084228515626	841.273132324219	-526.0147094726564	-593.1484985351564	719.9047851562501	-542.4685058593751	-673.2916870117189	783.1494750976565	-522.0474243164064	-482.174285888672	1210.05224609375	-154.9680633544922	-443.4893798828126	1347.77734375	-184.4648742675782	-398.2529907226564	1355.95654296875	-111.2634582519532	-345.9300537109376	1359.490112304688	-86.77722930908205	-332.9805603027344	1041.219970703125	-12.0011682510376	-338.5588378906251	1020.930786132813	-94.88037872314455	-335.2370605468751	1004.648620605469	-42.58261489868165	-91.64526367187501	969.8145141601565	-51.45138931274415	-126.0025405883789	920.824645996094	-8.348106384277346	-7.608560085296633	944.581726074219	-41.99634552001954	-64.03919982910158	864.1126708984377	-14.07281398773194	
